<svg xmlns="http://www.w3.org/2000/svg" width="1147" height="388" viewBox="0 0 1147 388">
<rect width="100%" height="100%" rx="12" fill="#111827"/>
<rect x="8" y="8" width="1131" height="372" rx="8" fill="#282e3a" stroke="#334155"/>
<text xml:space="preserve" x="16" y="28" fill="#e2e8f0" opacity="1" font-family="Menlo, Monaco, Consolas, monospace" font-size="14" font-weight="500">╭ Command History (1 / 9) ───────────────────────────────────────╮╭ Keyboard Help ─────────────────────────────────────────────────╮</text>
<rect x="24.45" y="34" width="913" height="20" fill="#282c34"/>
<rect x="1122.9499999999998" y="34" width="9" height="20" fill="#282c34"/>
<text xml:space="preserve" x="16" y="48" fill="#e2e8f0" opacity="1" font-family="Menlo, Monaco, Consolas, monospace" font-size="14" font-weight="500">│▶ </text>
<text xml:space="preserve" x="41.349999999999994" y="48" fill="#e2e8f0" opacity="1" font-family="Menlo, Monaco, Consolas, monospace" font-size="14" font-weight="700">cargo install --path . --force</text>
<text xml:space="preserve" x="311.75" y="48" fill="#e2e8f0" opacity="1" font-family="Menlo, Monaco, Consolas, monospace" font-size="14" font-weight="700">*/situs-cli</text>
<text xml:space="preserve" x="404.7" y="48" fill="#e2e8f0" opacity="1" font-family="Menlo, Monaco, Consolas, monospace" font-size="14" font-weight="500">                   ││</text>
<text xml:space="preserve" x="582.15" y="48" fill="#e2e8f0" opacity="1" font-family="Menlo, Monaco, Consolas, monospace" font-size="14" font-weight="700">Situs Shortcut Keymaptall --path . --force</text>
<text xml:space="preserve" x="937.05" y="48" fill="#e2e8f0" opacity="1" font-family="Menlo, Monaco, Consolas, monospace" font-size="14" font-weight="500">                      │</text>
<rect x="16" y="54" width="110" height="20" fill="#282c34"/>
<rect x="142.75" y="54" width="93" height="20" fill="#282c34"/>
<rect x="565.25" y="54" width="17" height="20" fill="#282c34"/>
<rect x="1122.9499999999998" y="54" width="9" height="20" fill="#282c34"/>
<text xml:space="preserve" x="16" y="68" fill="#e2e8f0" opacity="1" font-family="Menlo, Monaco, Consolas, monospace" font-size="14" font-weight="500">│  cargo test  */situs-cli                                       ││                                                                │</text>
<rect x="16" y="74" width="279" height="20" fill="#282c34"/>
<rect x="311.75" y="74" width="93" height="20" fill="#282c34"/>
<rect x="565.25" y="74" width="322" height="20" fill="#282c34"/>
<rect x="1122.9499999999998" y="74" width="9" height="20" fill="#282c34"/>
<text xml:space="preserve" x="16" y="88" fill="#e2e8f0" opacity="1" font-family="Menlo, Monaco, Consolas, monospace" font-size="14" font-weight="500">│  cargo clippy --all-targets ...  */situs-cli                   ││  Up / Down      selectohistorysrows                            │</text>
<rect x="16" y="94" width="203" height="20" fill="#282c34"/>
<rect x="235.7" y="94" width="93" height="20" fill="#282c34"/>
<rect x="565.25" y="94" width="195" height="20" fill="#282c34"/>
<rect x="768.05" y="94" width="60" height="20" fill="#282c34"/>
<rect x="835.65" y="94" width="34" height="20" fill="#282c34"/>
<rect x="1122.9499999999998" y="94" width="9" height="20" fill="#282c34"/>
<text xml:space="preserve" x="16" y="108" fill="#e2e8f0" opacity="1" font-family="Menlo, Monaco, Consolas, monospace" font-size="14" font-weight="500">│  cargo build --release  */situs-cli                            ││  PageUp/Down    jump through rows                              │</text>
<rect x="16" y="114" width="220" height="20" fill="#282c34"/>
<rect x="252.59999999999997" y="114" width="93" height="20" fill="#282c34"/>
<rect x="565.25" y="114" width="195" height="20" fill="#282c34"/>
<rect x="768.05" y="114" width="26" height="20" fill="#282c34"/>
<rect x="801.8499999999999" y="114" width="43" height="20" fill="#282c34"/>
<rect x="852.55" y="114" width="51" height="20" fill="#282c34"/>
<rect x="911.6999999999999" y="114" width="43" height="20" fill="#282c34"/>
<rect x="962.3999999999999" y="114" width="51" height="20" fill="#282c34"/>
<rect x="1122.9499999999998" y="114" width="9" height="20" fill="#282c34"/>
<text xml:space="preserve" x="16" y="128" fill="#e2e8f0" opacity="1" font-family="Menlo, Monaco, Consolas, monospace" font-size="14" font-weight="500">│  cargo build --workspace  */situs-cli                          ││  Left / Right   move the fixed bottom query cursor             │</text>
<rect x="16" y="134" width="237" height="20" fill="#282c34"/>
<rect x="269.5" y="134" width="102" height="20" fill="#282c34"/>
<rect x="565.25" y="134" width="195" height="20" fill="#282c34"/>
<rect x="768.05" y="134" width="17" height="20" fill="#282c34"/>
<rect x="793.4" y="134" width="43" height="20" fill="#282c34"/>
<rect x="844.0999999999999" y="134" width="43" height="20" fill="#282c34"/>
<rect x="894.8" y="134" width="17" height="20" fill="#282c34"/>
<rect x="920.15" y="134" width="26" height="20" fill="#282c34"/>
<rect x="1122.9499999999998" y="134" width="9" height="20" fill="#282c34"/>
<text xml:space="preserve" x="16" y="148" fill="#e2e8f0" opacity="1" font-family="Menlo, Monaco, Consolas, monospace" font-size="14" font-weight="500">│  cargo install cargo-watch  */rust-tools                       ││  Home / End     jump to query start or end                     │</text>
<rect x="16" y="154" width="271" height="20" fill="#282c34"/>
<rect x="303.29999999999995" y="154" width="136" height="20" fill="#282c34"/>
<rect x="565.25" y="154" width="203" height="20" fill="#282c34"/>
<rect x="776.4999999999999" y="154" width="153" height="20" fill="#282c34"/>
<rect x="937.05" y="154" width="26" height="20" fill="#282c34"/>
<rect x="970.8499999999999" y="154" width="34" height="20" fill="#282c34"/>
<rect x="1013.0999999999999" y="154" width="26" height="20" fill="#282c34"/>
<rect x="1046.8999999999999" y="154" width="43" height="20" fill="#282c34"/>
<rect x="1097.6" y="154" width="17" height="20" fill="#282c34"/>
<rect x="1122.9499999999998" y="154" width="9" height="20" fill="#282c34"/>
<text xml:space="preserve" x="16" y="168" fill="#e2e8f0" opacity="1" font-family="Menlo, Monaco, Consolas, monospace" font-size="14" font-weight="500">│  cargo run --bin schema-worker  */schema-service               ││  Tab            cd,to selectedudirectory and keep the query in │</text>
<rect x="16" y="174" width="195" height="20" fill="#282c34"/>
<rect x="227.24999999999997" y="174" width="93" height="20" fill="#282c34"/>
<rect x="565.25" y="174" width="178" height="20" fill="#282c34"/>
<rect x="751.15" y="174" width="17" height="20" fill="#282c34"/>
<rect x="776.4999999999999" y="174" width="68" height="20" fill="#282c34"/>
<rect x="852.55" y="174" width="77" height="20" fill="#282c34"/>
<rect x="937.05" y="174" width="26" height="20" fill="#282c34"/>
<rect x="970.8499999999999" y="174" width="26" height="20" fill="#282c34"/>
<rect x="1004.6499999999999" y="174" width="26" height="20" fill="#282c34"/>
<rect x="1038.4499999999998" y="174" width="68" height="20" fill="#282c34"/>
<rect x="1114.5" y="174" width="17" height="20" fill="#282c34"/>
<text xml:space="preserve" x="16" y="188" fill="#e2e8f0" opacity="1" font-family="Menlo, Monaco, Consolas, monospace" font-size="14" font-weight="500">│  cargo fmt -- --check  */situs-cli                             ││  Enter          cd to selected directory and run the selected h│</text>
<rect x="16" y="194" width="279" height="20" fill="#282c34"/>
<rect x="311.75" y="194" width="93" height="20" fill="#282c34"/>
<rect x="565.25" y="194" width="195" height="20" fill="#282c34"/>
<rect x="768.05" y="194" width="26" height="20" fill="#282c34"/>
<rect x="801.8499999999999" y="194" width="34" height="20" fill="#282c34"/>
<rect x="844.0999999999999" y="194" width="26" height="20" fill="#282c34"/>
<rect x="877.9" y="194" width="68" height="20" fill="#282c34"/>
<rect x="953.9499999999999" y="194" width="43" height="20" fill="#282c34"/>
<rect x="1004.6499999999999" y="194" width="43" height="20" fill="#282c34"/>
<rect x="1122.9499999999998" y="194" width="9" height="20" fill="#282c34"/>
<text xml:space="preserve" x="16" y="208" fill="#e2e8f0" opacity="1" font-family="Menlo, Monaco, Consolas, monospace" font-size="14" font-weight="500">│  cargo run -- choose --picke...  */situs-cli                   ││  Esc / Ctrl-C   quit and keep the original shell input         │</text>
<rect x="16" y="214" width="9" height="20" fill="#282c34"/>
<rect x="565.25" y="214" width="17" height="20" fill="#282c34"/>
<rect x="1122.9499999999998" y="214" width="9" height="20" fill="#282c34"/>
<text xml:space="preserve" x="16" y="228" fill="#e2e8f0" opacity="1" font-family="Menlo, Monaco, Consolas, monospace" font-size="14" font-weight="500">│                                                                ││                                                                │</text>
<rect x="16" y="234" width="9" height="20" fill="#282c34"/>
<rect x="565.25" y="234" width="144" height="20" fill="#282c34"/>
<rect x="1122.9499999999998" y="234" width="9" height="20" fill="#282c34"/>
<text xml:space="preserve" x="16" y="248" fill="#e2e8f0" opacity="1" font-family="Menlo, Monaco, Consolas, monospace" font-size="14" font-weight="500">│                                                                ││</text>
<text xml:space="preserve" x="582.15" y="248" fill="#e2e8f0" opacity="1" font-family="Menlo, Monaco, Consolas, monospace" font-size="14" font-weight="700">Views &amp; Filters</text>
<text xml:space="preserve" x="708.9" y="248" fill="#e2e8f0" opacity="1" font-family="Menlo, Monaco, Consolas, monospace" font-size="14" font-weight="500">                                                 │</text>
<rect x="16" y="254" width="9" height="20" fill="#282c34"/>
<rect x="565.25" y="254" width="17" height="20" fill="#282c34"/>
<rect x="1122.9499999999998" y="254" width="9" height="20" fill="#282c34"/>
<text xml:space="preserve" x="16" y="268" fill="#e2e8f0" opacity="1" font-family="Menlo, Monaco, Consolas, monospace" font-size="14" font-weight="500">│                                                                ││                                                                │</text>
<rect x="16" y="274" width="9" height="20" fill="#282c34"/>
<rect x="565.25" y="274" width="212" height="20" fill="#282c34"/>
<rect x="784.9499999999999" y="274" width="34" height="20" fill="#282c34"/>
<rect x="1122.9499999999998" y="274" width="9" height="20" fill="#282c34"/>
<text xml:space="preserve" x="16" y="288" fill="#e2e8f0" opacity="1" font-family="Menlo, Monaco, Consolas, monospace" font-size="14" font-weight="500">│                                                                ││  Ctrl-/ / F1    toggle help                                    │</text>
<rect x="16" y="294" width="9" height="20" fill="#282c34"/>
<rect x="565.25" y="294" width="195" height="20" fill="#282c34"/>
<rect x="768.05" y="294" width="17" height="20" fill="#282c34"/>
<rect x="793.4" y="294" width="34" height="20" fill="#282c34"/>
<rect x="835.65" y="294" width="51" height="20" fill="#282c34"/>
<rect x="894.8" y="294" width="60" height="20" fill="#282c34"/>
<rect x="1122.9499999999998" y="294" width="9" height="20" fill="#282c34"/>
<text xml:space="preserve" x="16" y="308" fill="#e2e8f0" opacity="1" font-family="Menlo, Monaco, Consolas, monospace" font-size="14" font-weight="500">│                                                                ││  Ctrl-F         show or hide failed history                    │</text>
<rect x="16" y="314" width="1116" height="20" fill="#282c34"/>
<text xml:space="preserve" x="16" y="328" fill="#e2e8f0" opacity="1" font-family="Menlo, Monaco, Consolas, monospace" font-size="14" font-weight="500">╰────────────────────────────────────────────────────────────────╯╰────────────────────────────────────────────────────────────────╯</text>
<rect x="16" y="334" width="51" height="20" fill="#282c34"/>
<rect x="66.69999999999999" y="334" width="9" height="20" fill="#6366f1"/>
<rect x="75.14999999999999" y="334" width="9" height="20" fill="#282c34"/>
<rect x="83.6" y="334" width="9" height="20" fill="#6366f1"/>
<rect x="92.05" y="334" width="43" height="20" fill="#282c34"/>
<rect x="134.29999999999998" y="334" width="989" height="20" fill="#131720"/>
<text xml:space="preserve" x="16" y="348" fill="#e2e8f0" opacity="1" font-family="Menlo, Monaco, Consolas, monospace" font-size="14" font-weight="500">Search</text>
<text xml:space="preserve" x="66.69999999999999" y="348" fill="#f8fafc" opacity="1" font-family="Menlo, Monaco, Consolas, monospace" font-size="14" font-weight="500">c</text>
<text xml:space="preserve" x="75.14999999999999" y="348" fill="#e2e8f0" opacity="1" font-family="Menlo, Monaco, Consolas, monospace" font-size="14" font-weight="500">&gt;</text>
<text xml:space="preserve" x="92.05" y="348" fill="#e2e8f0" opacity="1" font-family="Menlo, Monaco, Consolas, monospace" font-size="14" font-weight="500">cargorgo                                                                                                                   </text>
<rect x="16" y="354" width="1116" height="20" fill="#323232"/>
<text xml:space="preserve" x="16" y="368" fill="#e2e8f0" opacity="1" font-family="Menlo, Monaco, Consolas, monospace" font-size="14" font-weight="500"> Enter cd &amp; run   Tab cd   Ctrl-Y copy   Ctrl-D delete   F2 source   F3 context   Ctrl-/ help                                       </text>
</svg>